<?xml version="1.0" encoding="UTF-8"?>
<svg viewBox="0 0 308.77979 325.79022" xmlns="http://www.w3.org/2000/svg">
 <defs>
  <linearGradient id="a" x1="1475.5" x2="876.95" y1="1033" y2="1319.9" gradientUnits="userSpaceOnUse">
   <stop stop-color="#6f918a" offset="0"/>
   <stop stop-color="#6f918a" stop-opacity="0" offset="1"/>
  </linearGradient>
 </defs>
 <g transform="matrix(-.21535 -.38728 .38728 -.21535 11.821 838.87)" fill="url(#a)">
  <path d="m1519.1 921.97c1.5263 1.8988 58.968 135.42-20.718 278.73-95.65 172.02-282.38 173.49-286.33 171.3l0.7739 69.198-124.45-153.2 125-149v80.311c3.1972-0.1207 99.315-0.5026 151.88-92.636 34.47-60.421 18.922-124.72 18.501-126.63l98.919 17.44 36.426-95.515z" fill="url(#a)" fill-rule="evenodd"/>
 </g>
 <g transform="matrix(.44306 .00714 -.00714 .44306 -373.41 -321.42)" fill="url(#a)">
  <path d="m1519.1 921.97c1.5263 1.8988 58.968 135.42-20.718 278.73-95.65 172.02-282.38 173.49-286.33 171.3l0.7739 69.198-124.45-153.2 125-149v80.311c3.1972-0.1207 99.315-0.5026 151.88-92.636 34.47-60.421 18.922-124.72 18.501-126.63l98.919 17.44 36.426-95.515z" fill="url(#a)" fill-rule="evenodd"/>
 </g>
 <g transform="matrix(-.22772 .38013 -.38013 -.22772 824.04 -74.9)" fill="url(#a)">
  <path d="m1519.1 921.97c1.5263 1.8988 58.968 135.42-20.718 278.73-95.65 172.02-282.38 173.49-286.33 171.3l0.7739 69.198-124.45-153.2 125-149v80.311c3.1972-0.1207 99.315-0.5026 151.88-92.636 34.47-60.421 18.922-124.72 18.501-126.63l98.919 17.44 36.426-95.515z" fill="url(#a)" fill-rule="evenodd"/>
 </g>
</svg>
